<svg width="21" height="21" viewBox="0 0 21 21" fill="none" xmlns="http://www.w3.org/2000/svg">
<g clip-path="url(#clip0_46_1447)">
<path d="M0.65625 10.5C0.65625 12.4359 1.21406 14.2406 2.16562 15.75H18.8016C19.7531 14.2406 20.3109 12.4359 20.3109 10.5C20.3109 8.56406 19.7531 6.75937 18.8016 5.25H2.16562C1.21406 6.75937 0.65625 8.56406 0.65625 10.5Z" fill="#FFCE31"/>
<path d="M18.8343 5.25C17.0952 2.49375 14.0108 0.65625 10.4999 0.65625C6.98896 0.65625 3.90459 2.49375 2.16553 5.25H18.8343ZM2.16553 15.75C3.90459 18.5063 6.98896 20.3438 10.4999 20.3438C14.0108 20.3438 17.0952 18.5063 18.8343 15.75H2.16553Z" fill="#ED4C5C"/>
<path d="M3.01855 9.41724H4.06855V10.0079H3.01855V9.41724ZM3.01855 13.7485H4.10137V14.3063H3.01855V13.7485Z" fill="#C8B100"/>
<path d="M2.92041 12.8296C2.82197 12.8952 2.75635 12.9608 2.75635 12.9937C2.75635 13.0265 2.78916 13.0593 2.85479 13.0921C2.92041 13.1249 2.98604 13.1905 2.95322 13.2562C3.01885 13.1905 3.05166 13.1249 3.05166 13.0593C3.05166 12.9608 2.98604 12.8624 2.92041 12.8296Z" fill="#ED4C5C"/>
<path d="M3.18262 10.0078H3.9373V13.7484H3.18262V10.0078Z" fill="white"/>
<path d="M4.72496 11.3859C4.5609 11.3203 4.26558 11.2547 3.93746 11.2547C3.83902 11.2547 3.70777 11.2547 3.57652 11.2875C3.11715 11.3531 2.75621 11.55 2.78902 11.6812L2.62496 11.3203C2.59215 11.1562 2.9859 10.9594 3.47808 10.8609C3.64215 10.8281 3.80621 10.8281 3.93746 10.8281C4.26558 10.8281 4.5609 10.8609 4.72496 10.9266V11.3859Z" fill="#ED4C5C"/>
<path d="M3.18271 11.8781C2.98584 11.8781 2.82178 11.8125 2.82178 11.7141C2.82178 11.6484 2.8874 11.55 3.01865 11.4844H3.21553L3.18271 11.8781ZM3.9374 11.5828C4.06865 11.6156 4.16709 11.6484 4.23271 11.6812C4.26553 11.7141 4.13428 11.8453 3.9374 11.9438V11.5828Z" fill="#ED4C5C"/>
<path d="M2.69063 12.5999C2.65781 12.5343 2.8875 12.403 3.18281 12.3046C3.31406 12.2718 3.4125 12.2062 3.57656 12.1405C3.97031 11.9765 4.29844 11.7468 4.23281 11.6812L4.29844 12.0749C4.33125 12.1405 4.06875 12.3374 3.675 12.5343C3.54375 12.5999 3.31406 12.6983 3.18281 12.7312C2.95313 12.7968 2.75625 12.928 2.75625 12.9608L2.69063 12.5999Z" fill="#ED4C5C"/>
<path d="M10.0733 9.41724H11.1233V10.0079H10.0733V9.41724ZM10.0405 13.7485H11.1233V14.3063H10.0405V13.7485Z" fill="#C8B100"/>
<path d="M11.2221 12.8296C11.3205 12.8952 11.3861 12.9608 11.3861 12.9937C11.3861 13.0265 11.3533 13.0593 11.2877 13.0921C11.2221 13.1577 11.1564 13.2562 11.1893 13.289C11.1236 13.2233 11.0908 13.1577 11.0908 13.0921C11.0908 12.9608 11.1564 12.8624 11.2221 12.8296Z" fill="#ED4C5C"/>
<path d="M10.2046 10.0078H10.9593V13.7484H10.2046V10.0078Z" fill="white"/>
<path d="M9.41748 11.3859C9.58154 11.3203 9.87686 11.2547 10.205 11.2547C10.3034 11.2547 10.4347 11.2547 10.5659 11.2875C11.0253 11.3531 11.3862 11.55 11.3534 11.6812L11.5175 11.2875C11.5503 11.1234 11.1565 10.9266 10.6644 10.8281H10.205C9.87686 10.8281 9.58154 10.8609 9.41748 10.9266V11.3859Z" fill="#ED4C5C"/>
<path d="M10.9598 11.8781C11.1567 11.8781 11.3207 11.8125 11.3207 11.7141C11.3207 11.6484 11.2551 11.55 11.1239 11.4844H10.927L10.9598 11.8781ZM10.2051 11.5828C10.0739 11.6156 9.97544 11.6484 9.90981 11.6812C9.877 11.7141 10.0082 11.8453 10.2051 11.9438V11.5828Z" fill="#ED4C5C"/>
<path d="M11.4518 12.6C11.4846 12.5343 11.2549 12.4031 10.9596 12.3046C10.8283 12.2718 10.7299 12.2062 10.5658 12.1406C10.1721 11.9765 9.84395 11.7468 9.90957 11.6812L9.84394 12.075C9.81113 12.1406 10.0736 12.3375 10.4674 12.5343C10.5986 12.6 10.8283 12.6984 10.9596 12.7312C11.1893 12.7968 11.3861 12.9609 11.3533 12.9937L11.4518 12.6ZM7.05488 7.31714C7.67832 7.31714 8.95801 7.44839 9.41738 7.90776C8.9252 9.08901 8.13769 8.59683 7.05488 8.59683C6.00488 8.59683 5.18457 9.08901 4.69238 7.90776C5.15176 7.44839 6.39863 7.31714 7.05488 7.31714Z" fill="#ED4C5C"/>
<path d="M8.6627 8.62969C8.26895 8.4 7.67832 8.36719 7.05488 8.36719C6.43145 8.36719 5.84082 8.43281 5.44707 8.62969L5.57832 9.1875C5.93926 9.28594 6.46426 9.35156 7.05488 9.35156C7.64551 9.35156 8.1377 9.28594 8.53145 9.1875L8.6627 8.62969ZM9.22051 7.21875C9.08926 7.12031 8.82676 7.02187 8.59707 7.02187C8.49863 7.02187 8.4002 7.02187 8.30176 7.05469C8.30176 7.05469 8.10488 6.79219 7.64551 6.79219C7.48145 6.79219 7.3502 6.825 7.21895 6.89062V6.85781C7.18613 6.79219 7.12051 6.72656 7.05488 6.72656C6.98926 6.72656 6.89082 6.825 6.89082 6.89062V6.92344C6.75957 6.85781 6.62832 6.825 6.46426 6.825C6.00488 6.825 5.80801 7.12031 5.80801 7.0875C5.70957 7.05469 5.61113 7.05469 5.5127 7.05469C4.00332 7.05469 4.75801 8.07188 4.75801 8.07188L4.92207 7.875C4.56113 7.41563 4.88926 7.15312 5.54551 7.15312C5.64395 7.15312 5.70957 7.15312 5.7752 7.18594C5.54551 7.51406 5.97207 7.80937 5.97207 7.80937L6.07051 7.64531C5.84082 7.48125 5.80801 6.92344 6.46426 6.92344C6.62832 6.92344 6.75957 6.95625 6.89082 7.05469C6.89082 7.0875 6.85801 7.54688 6.8252 7.6125L7.0877 7.84219L7.3502 7.6125C7.31738 7.51406 7.28457 7.0875 7.28457 7.05469C7.38301 6.98906 7.54707 6.92344 7.71113 6.92344C8.4002 6.92344 8.4002 7.48125 8.10488 7.64531L8.20332 7.80937C8.20332 7.80937 8.56426 7.51406 8.4002 7.18594C8.46582 7.18594 8.56426 7.15312 8.62988 7.15312C9.41738 7.15312 9.4502 7.74375 9.25332 7.875L9.38457 8.07188C9.31895 8.07188 9.67988 7.6125 9.22051 7.21875Z" fill="#C8B100"/>
<path d="M6.85791 6.59531C6.85791 6.49688 6.95635 6.39844 7.05479 6.39844C7.18604 6.39844 7.25166 6.49688 7.25166 6.59531C7.25166 6.69375 7.15322 6.79219 7.05479 6.79219C6.95635 6.79219 6.85791 6.69375 6.85791 6.59531Z" fill="#005BBF"/>
<path d="M6.98916 6.0376V6.13604H6.89072V6.23447H6.98916V6.5626H6.85791V6.66104H7.25166L7.28447 6.59541L7.25166 6.5626H7.12041V6.23447H7.21885V6.13604H7.12041V6.0376H6.98916Z" fill="#C8B100"/>
<path d="M7.05479 9.28589C6.52979 9.28589 6.07041 9.22026 5.70947 9.12183C6.07041 9.02339 6.52979 8.95776 7.05479 8.95776C7.57979 8.95776 8.03916 9.02339 8.4001 9.12183C8.07197 9.22026 7.57979 9.28589 7.05479 9.28589Z" fill="#ED4C5C"/>
<path d="M7.0876 14.9624C6.46416 14.9624 5.87354 14.7983 5.34854 14.5687C4.95479 14.3718 4.7251 14.0108 4.7251 13.5843V12.0093H9.4501V13.5843C9.4501 14.0108 9.1876 14.4046 8.82666 14.5687C8.30166 14.8312 7.71104 14.9624 7.0876 14.9624ZM7.05479 9.38428H9.41729V12.0093H7.05479V9.38428Z" fill="white"/>
<path d="M7.0876 13.5843C7.0876 14.2077 6.5626 14.6999 5.90635 14.6999C5.2501 14.6999 4.7251 14.2077 4.7251 13.5843V12.0093H7.0876V13.5843Z" fill="#ED4C5C"/>
<path d="M5.21738 14.5032C5.28301 14.536 5.38144 14.6017 5.51269 14.6345V11.9438H5.2502L5.21738 14.5032ZM4.69238 13.5517C4.69238 13.8798 4.82363 14.1423 4.95488 14.2735V11.9438H4.69238V13.5517Z" fill="#C8B100"/>
<path d="M5.74219 14.7001H6.00469V11.9438H5.74219V14.7001Z" fill="#C7B500"/>
<path d="M6.26709 14.6345C6.36553 14.6017 6.49678 14.536 6.5624 14.5032V11.9438H6.2999L6.26709 14.6345Z" fill="#C8B100"/>
<path d="M4.69238 9.38428H7.05488V12.0093H4.69238V9.38428Z" fill="#ED4C5C"/>
<path d="M6.8252 14.2734C6.95645 14.175 7.05488 13.9453 7.0877 13.6828V11.9766H6.8252V14.2734Z" fill="#C8B100"/>
<path d="M9.4501 12.0095V13.5845C9.4501 14.2079 8.9251 14.7001 8.26885 14.7001C7.6126 14.7001 7.0876 14.2079 7.0876 13.5845V12.0095H9.4501ZM8.59697 9.84385C8.69541 10.0407 8.69541 10.5329 8.4001 10.4345C8.46572 10.4673 8.49854 10.697 8.59697 10.8282C8.76104 11.0251 8.95791 10.861 8.9251 10.6314C8.85947 10.2704 8.89228 10.0407 8.95791 9.67979C8.95791 9.7126 9.12197 9.7126 9.1876 9.64698C9.15479 9.74541 9.12197 9.87666 9.1876 9.87666C9.12197 9.9751 8.95791 10.1392 8.9251 10.2376C8.89229 10.4673 9.25322 10.8939 8.85947 10.9923C8.59697 11.0579 8.76104 11.2548 8.85947 11.3532C8.85947 11.3532 8.72822 11.7798 8.79385 11.747C8.53135 11.8454 8.59697 11.6157 8.59697 11.6157C8.72822 11.222 8.36729 11.1892 8.4001 11.1235C8.07197 11.0907 8.43291 11.4189 8.1376 11.4189C8.07197 11.4189 7.94072 11.4845 7.94072 11.4845C7.57979 11.4517 7.77666 11.1235 7.90791 11.1564C8.00635 11.1892 8.10479 11.3532 8.10479 11.1235C8.10479 11.1235 7.94072 10.861 8.36729 10.861C8.20322 10.861 8.10479 10.7298 8.03916 10.5657C7.97354 10.5985 7.8751 10.7626 7.51416 10.7954C7.51416 10.7954 7.41572 10.4345 7.51416 10.5001C7.64541 10.5657 7.71104 10.5657 7.84229 10.4345C7.77666 10.336 7.38291 10.2048 7.44854 9.9751C7.44854 9.90948 7.64541 9.81104 7.64541 9.81104C7.6126 9.9751 7.71104 10.1392 7.90791 10.1392C8.17041 10.172 8.07197 10.0735 8.10479 10.0079C8.1376 9.94229 8.33447 10.0407 8.26885 9.87666C8.26885 9.84385 8.03916 9.81104 8.10479 9.7126C8.23604 9.54854 8.43291 9.67979 8.59697 9.84385ZM7.0876 14.6345L7.02197 14.4704L7.0876 14.2735L7.15322 14.4704L7.0876 14.6345Z" fill="#ED4C5C"/>
<path d="M5.41416 9.94219V10.1062H5.47979V10.2375H5.31572V10.5656H5.41416V11.2875H5.21729V11.6484H6.5626V11.2875H6.39854V10.5656H6.46416V10.2375H6.3001V10.1062H6.39854V9.94219H6.07041V10.1062H6.13604V10.2375H5.97197V9.84375H6.07041V9.67969H5.70947V9.84375H5.80791V10.2375H5.64385V10.1062H5.70947V9.94219H5.41416ZM9.12197 13.9781V12.3375H7.41572V13.9781L8.20322 14.3391H8.30166L9.12197 13.9781ZM8.20322 12.4688V13.0266L7.64541 12.4688H8.20322ZM7.51416 12.5016L8.17041 13.1578L7.51416 13.8141V12.5016ZM7.57979 13.9453L8.20322 13.3219V14.2406L7.57979 13.9453ZM8.30166 14.2078V13.2891L8.9251 13.9125L8.30166 14.2078ZM8.99072 13.8141L8.33447 13.1578L8.99072 12.5016V13.8141ZM8.30166 12.4688H8.85947L8.30166 13.0266V12.4688Z" fill="#C8B100"/>
<path d="M6.2998 11.9767C6.2998 11.4845 6.62793 11.1235 7.05449 11.1235C7.48105 11.1235 7.80918 11.5173 7.80918 11.9767C7.80918 12.436 7.48105 12.8298 7.05449 12.8298C6.62793 12.8298 6.2998 12.4688 6.2998 11.9767Z" fill="#ED4C5C"/>
<path d="M6.52979 11.9765C6.52979 11.6155 6.75947 11.353 7.05479 11.353C7.3501 11.353 7.57979 11.6483 7.57979 11.9765C7.57979 12.3374 7.3501 12.5999 7.05479 12.5999C6.79229 12.6327 6.52979 12.3374 6.52979 11.9765Z" fill="#005BBF"/>
<path d="M6.8251 11.55L6.69385 11.911L6.79229 11.9438L6.72666 12.075H6.92354L6.85791 11.9438L6.95635 11.911L6.8251 11.55ZM7.31729 11.55L7.18604 11.911L7.28447 11.9438L7.21885 12.075H7.41572L7.38291 11.9438L7.48135 11.911L7.31729 11.55ZM7.0876 11.9766L6.92354 12.3375L7.02197 12.3704L6.98916 12.5016H7.15322L7.12041 12.3704L7.21885 12.3375L7.0876 11.9766Z" fill="#C8B100"/>
</g>
<defs>
<clipPath id="clip0_46_1447">
<rect width="21" height="21" fill="white"/>
</clipPath>
</defs>
</svg>
