<svg width="21" height="21" viewBox="0 0 21 21" fill="none" xmlns="http://www.w3.org/2000/svg">
<g clip-path="url(#clip0_135_84)">
<path d="M10.467 0.65625C6.20137 0.65625 2.55918 3.4125 1.21387 7.21875H19.7857C18.4076 3.4125 14.7654 0.65625 10.467 0.65625Z" fill="#F9F9F9"/>
<path d="M10.467 20.3438C14.7654 20.3438 18.4076 17.5875 19.7529 13.7812H1.21387C2.55918 17.6203 6.20137 20.3438 10.467 20.3438Z" fill="#ED4C5C"/>
<path d="M1.21406 7.21875C0.853125 8.23594 0.65625 9.35156 0.65625 10.5C0.65625 11.6484 0.853125 12.7641 1.21406 13.7812H19.7859C20.1469 12.7641 20.3438 11.6484 20.3438 10.5C20.3438 9.35156 20.1469 8.23594 19.7859 7.21875H1.21406Z" fill="#428BC1"/>
</g>
<defs>
<clipPath id="clip0_135_84">
<rect width="21" height="21" fill="white"/>
</clipPath>
</defs>
</svg>
