<svg width="21" height="21" viewBox="0 0 21 21" fill="none" xmlns="http://www.w3.org/2000/svg">
<g clip-path="url(#clip0_46_1496)">
<path d="M15.75 2.16562C14.2078 1.21406 12.4359 0.65625 10.5 0.65625V2.16562H15.75Z" fill="#ED4C5C"/>
<path d="M10.5 3.6749H17.5875C17.0297 3.11709 16.4062 2.59209 15.75 2.16553H10.5V3.6749Z" fill="white"/>
<path d="M10.5 5.18442H18.8016C18.4406 4.62661 18.0469 4.13442 17.6203 3.67505H10.5V5.18442Z" fill="#ED4C5C"/>
<path d="M10.5 6.6937H19.5891C19.3594 6.1687 19.0969 5.6437 18.8016 5.18433H10.5V6.6937Z" fill="white"/>
<path d="M10.5 8.20322H20.0813C19.95 7.67822 19.7859 7.18604 19.5891 6.69385H10.5V8.20322Z" fill="#ED4C5C"/>
<path d="M10.5 9.74522H20.3109C20.2781 9.22022 20.1797 8.72803 20.0813 8.23584H10.5V9.74522Z" fill="white"/>
<path d="M20.3109 9.74536H10.5V10.5H0.65625C0.65625 10.7625 0.65625 10.9922 0.689062 11.2547H20.3109C20.3438 10.9922 20.3438 10.7625 20.3438 10.5C20.3438 10.2375 20.3438 9.97505 20.3109 9.74536Z" fill="#ED4C5C"/>
<path d="M0.918652 12.764H20.0812C20.2124 12.2718 20.278 11.7796 20.3108 11.2546H0.688965C0.721777 11.7468 0.787402 12.2718 0.918652 12.764Z" fill="white"/>
<path d="M1.41113 14.2735H19.5893C19.7861 13.7813 19.9502 13.2892 20.0814 12.7642H0.918945C1.0502 13.2892 1.21426 13.7813 1.41113 14.2735Z" fill="#ED4C5C"/>
<path d="M2.19863 15.7828H18.8018C19.0971 15.2906 19.3596 14.7984 19.5893 14.2734H1.41113C1.64082 14.7984 1.90332 15.2906 2.19863 15.7828Z" fill="white"/>
<path d="M3.37949 17.2921H17.6201C18.0467 16.8327 18.4732 16.3077 18.8014 15.7827H2.19824C2.52637 16.3405 2.95293 16.8327 3.37949 17.2921Z" fill="#ED4C5C"/>
<path d="M5.21738 18.8016H15.783C16.4721 18.375 17.0627 17.85 17.6205 17.2922H3.37988C3.9377 17.8829 4.56113 18.375 5.21738 18.8016Z" fill="white"/>
<path d="M10.5001 20.3437C12.436 20.3437 14.2407 19.7859 15.7829 18.8015H5.21729C6.75947 19.7859 8.56416 20.3437 10.5001 20.3437Z" fill="#ED4C5C"/>
<path d="M5.25 2.16562C4.56094 2.59219 3.9375 3.11719 3.37969 3.675C2.92031 4.13437 2.52656 4.65938 2.19844 5.18438C1.90312 5.67656 1.60781 6.16875 1.41094 6.69375C1.21406 7.18594 1.05 7.67812 0.91875 8.20312C0.7875 8.69531 0.721875 9.1875 0.689062 9.7125C0.65625 9.975 0.65625 10.2375 0.65625 10.5H10.5V0.65625C8.56406 0.65625 6.79219 1.21406 5.25 2.16562Z" fill="#428BC1"/>
<path d="M8.20322 0.984375L8.36728 1.47656H8.85947L8.46572 1.80469L8.59697 2.29688L8.20322 2.00156L7.80947 2.29688L7.94072 1.80469L7.54697 1.47656H8.03916L8.20322 0.984375ZM9.51572 2.95312L9.67978 3.44531H10.172L9.77822 3.77344L9.90947 4.26562L9.51572 3.97031L9.12197 4.26562L9.25322 3.77344L8.85947 3.44531H9.35166L9.51572 2.95312ZM6.89072 2.95312L7.05478 3.44531H7.54697L7.15322 3.77344L7.28447 4.26562L6.89072 3.97031L6.49697 4.26562L6.62822 3.77344L6.23447 3.44531H6.72666L6.89072 2.95312ZM8.20322 4.92188L8.36728 5.41406H8.85947L8.46572 5.74219L8.59697 6.23438L8.20322 5.93906L7.80947 6.23438L7.94072 5.74219L7.54697 5.41406H8.03916L8.20322 4.92188ZM5.57822 4.92188L5.74228 5.41406H6.23447L5.84072 5.74219L5.97197 6.23438L5.57822 5.93906L5.18447 6.23438L5.31572 5.74219L4.92197 5.41406H5.41416L5.57822 4.92188ZM2.95322 4.92188L3.11729 5.41406H3.60947L3.21572 5.74219L3.34697 6.23438L2.95322 5.93906L2.55947 6.23438L2.69072 5.74219L2.29697 5.41406H2.78916L2.95322 4.92188ZM9.51572 6.89062L9.67978 7.38281H10.172L9.77822 7.71094L9.90947 8.20312L9.51572 7.90781L9.12197 8.20312L9.25322 7.71094L8.85947 7.38281H9.35166L9.51572 6.89062ZM6.89072 6.89062L7.05478 7.38281H7.54697L7.15322 7.71094L7.28447 8.20312L6.89072 7.90781L6.49697 8.20312L6.62822 7.71094L6.23447 7.38281H6.72666L6.89072 6.89062ZM4.26572 6.89062L4.42979 7.38281H4.92197L4.52822 7.71094L4.65947 8.20312L4.26572 7.90781L3.87197 8.20312L4.00322 7.71094L3.60947 7.38281H4.10166L4.26572 6.89062ZM8.20322 8.85938L8.36728 9.35156H8.85947L8.46572 9.67969L8.59697 10.1719L8.20322 9.87656L7.80947 10.1719L7.94072 9.67969L7.54697 9.35156H8.03916L8.20322 8.85938ZM5.57822 8.85938L5.74228 9.35156H6.23447L5.84072 9.67969L5.97197 10.1719L5.57822 9.87656L5.18447 10.1719L5.31572 9.67969L4.92197 9.35156H5.41416L5.57822 8.85938ZM2.95322 8.85938L3.11729 9.35156H3.60947L3.21572 9.67969L3.34697 10.1719L2.95322 9.87656L2.55947 10.1719L2.69072 9.67969L2.29697 9.35156H2.78916L2.95322 8.85938ZM3.87197 4.26562L4.26572 3.97031L4.65947 4.26562L4.49541 3.77344L4.88916 3.44531H4.39697L4.26572 2.95312L4.10166 3.44531H3.64229L4.03603 3.74062L3.87197 4.26562ZM1.24697 8.20312L1.64072 7.90781L2.03447 8.20312L1.87041 7.71094L2.26416 7.38281H1.80479L1.64072 6.89062L1.47666 7.38281H1.14854C1.14854 7.41563 1.11572 7.44844 1.11572 7.48125L1.37822 7.67812L1.24697 8.20312Z" fill="white"/>
</g>
<defs>
<clipPath id="clip0_46_1496">
<rect width="21" height="21" fill="white"/>
</clipPath>
</defs>
</svg>
