<svg width="21" height="21" viewBox="0 0 21 21" fill="none" xmlns="http://www.w3.org/2000/svg">
<g clip-path="url(#clip0_46_1492)">
<path d="M0.623535 10.5C0.623535 14.7985 3.37979 18.4407 7.18604 19.786V1.21411C3.37979 2.55942 0.623535 6.20161 0.623535 10.5Z" fill="#428BC1"/>
<path d="M20.311 10.5C20.311 6.20161 17.5876 2.55942 13.7485 1.21411V19.786C17.5876 18.4407 20.311 14.7985 20.311 10.5Z" fill="#ED4C5C"/>
<path d="M7.18604 19.7859C8.20322 20.1469 9.31885 20.3438 10.4673 20.3438C11.6157 20.3438 12.7313 20.1469 13.7485 19.7859V1.21406C12.7313 0.853125 11.6485 0.65625 10.4673 0.65625C9.28604 0.65625 8.20322 0.853125 7.18604 1.21406V19.7859Z" fill="white"/>
</g>
<defs>
<clipPath id="clip0_46_1492">
<rect width="21" height="21" fill="white"/>
</clipPath>
</defs>
</svg>
