<svg width="21" height="21" viewBox="0 0 21 21" fill="none" xmlns="http://www.w3.org/2000/svg">
<g clip-path="url(#clip0_46_1444)">
<path d="M10.5 20.3438C15.9366 20.3438 20.3438 15.9366 20.3438 10.5C20.3438 5.06345 15.9366 0.65625 10.5 0.65625C5.06345 0.65625 0.65625 5.06345 0.65625 10.5C0.65625 15.9366 5.06345 20.3438 10.5 20.3438Z" fill="#ED4C5C"/>
<path d="M7.21875 9.31875L9.84375 11.1562L8.85938 8.1375L11.4844 6.23438H8.23594L7.21875 3.28125L6.23438 6.23438H2.95312L5.57812 8.1375L4.59375 11.1562L7.21875 9.31875ZM11.5828 11.5828L10.8281 11.7469L11.55 12.0422V12.7969L12.0422 12.2391L12.7641 12.5016L12.3375 11.8781L12.7969 11.2875L12.0422 11.4516L11.5828 10.8281V11.5828ZM12.6984 9.35156L12.1406 9.84375L12.8953 9.77812L13.2234 10.5L13.3547 9.74531L14.1094 9.67969L13.4531 9.28594L13.6172 8.53125L13.0594 9.02344L12.4031 8.62969L12.6984 9.35156ZM12.8953 6.79219L13.125 7.54688L13.3547 6.825H14.1094L13.5188 6.36562L13.7484 5.61094L13.125 6.07031L12.5344 5.57812L12.7641 6.33281L12.1406 6.75938L12.8953 6.79219ZM11.5828 4.16719V4.92188L12.0422 4.29844L12.7969 4.4625L12.3375 3.87188L12.7641 3.24844L12.0422 3.54375L11.55 2.95312V3.70781L10.8281 4.00312L11.5828 4.16719Z" fill="#FFE62E"/>
</g>
<defs>
<clipPath id="clip0_46_1444">
<rect width="21" height="21" fill="white"/>
</clipPath>
</defs>
</svg>
