<svg width="21" height="21" viewBox="0 0 21 21" fill="none" xmlns="http://www.w3.org/2000/svg">
<g clip-path="url(#clip0_46_1480)">
<path d="M10.4671 0.65625C6.16865 0.65625 2.52646 3.4125 1.18115 7.21875H19.753C18.4077 3.4125 14.7655 0.65625 10.4671 0.65625Z" fill="#3E4347"/>
<path d="M10.4671 20.3438C14.7655 20.3438 18.4077 17.6203 19.753 13.7812H1.18115C2.52646 17.6203 6.16865 20.3438 10.4671 20.3438Z" fill="#FFE62E"/>
<path d="M1.18135 7.21875C0.82041 8.23594 0.623535 9.35156 0.623535 10.5C0.623535 11.6484 0.82041 12.7641 1.18135 13.7812H19.7532C20.1142 12.7641 20.311 11.6484 20.311 10.5C20.311 9.35156 20.1142 8.23594 19.7532 7.21875H1.18135Z" fill="#ED4C5C"/>
</g>
<defs>
<clipPath id="clip0_46_1480">
<rect width="21" height="21" fill="white"/>
</clipPath>
</defs>
</svg>
