<svg width="21" height="21" viewBox="0 0 21 21" fill="none" xmlns="http://www.w3.org/2000/svg">
<g clip-path="url(#clip0_46_1513)">
<path d="M10.5 20.3438C15.9366 20.3438 20.3438 15.9366 20.3438 10.5C20.3438 5.06345 15.9366 0.65625 10.5 0.65625C5.06345 0.65625 0.65625 5.06345 0.65625 10.5C0.65625 15.9366 5.06345 20.3438 10.5 20.3438Z" fill="#00AFCA"/>
<path d="M18.6049 10.861C18.3752 10.7297 18.1127 10.8938 18.1127 11.1235C18.0143 12.7313 15.1924 13.1579 13.8471 13.1579C12.5018 13.1907 9.61427 12.6985 9.51583 11.1235C9.51583 10.8938 9.25333 10.7626 9.02364 10.861C8.33458 11.2219 8.10489 11.911 8.26895 12.6001C8.56427 13.8469 10.1065 14.7329 11.419 15.1266C11.3205 15.3563 11.2877 15.586 11.2549 15.8157C11.2221 16.0782 11.6158 16.1766 11.8127 16.0126C12.5674 15.4547 13.7486 15.2251 14.733 15.2251C15.1596 15.2251 15.1596 14.6344 14.733 14.6344C13.8471 14.6344 12.8955 14.7985 12.108 15.1594C12.4033 14.4704 13.0924 13.7813 13.8471 13.7485H13.8799C15.4549 13.7813 17.9815 13.2235 18.6377 11.7469C18.7361 12.0094 18.7361 12.3047 18.6377 12.5672C18.3096 13.6172 17.1611 14.0438 16.0783 14.3391C15.6846 14.4376 15.8486 15.0282 16.2424 14.8969C17.6205 14.536 18.7033 13.9782 19.2611 12.7313C19.5236 12.0751 19.2611 11.2876 18.6049 10.861ZM11.6815 14.5688C10.5986 14.2735 9.77833 13.7485 9.12208 12.8954C8.85958 12.5344 8.76114 12.0422 8.99083 11.6813C9.48301 12.8297 11.0908 13.4204 12.5346 13.6172C12.2065 13.8797 11.9111 14.2079 11.6815 14.5688Z" fill="#FFE62E"/>
<path d="M13.7814 11.386C15.1768 11.386 16.308 10.2548 16.308 8.85945C16.308 7.46407 15.1768 6.33289 13.7814 6.33289C12.3861 6.33289 11.2549 7.46407 11.2549 8.85945C11.2549 10.2548 12.3861 11.386 13.7814 11.386Z" fill="#FFE62E"/>
<path d="M13.7813 6.00471C13.9454 6.00471 13.9782 5.90627 13.9782 5.80784C13.9782 5.64377 13.7813 4.95471 13.7813 4.95471C13.7813 4.95471 13.5845 5.67659 13.5845 5.80784C13.5845 5.90627 13.6173 6.00471 13.7813 6.00471Z" fill="#FFE62E"/>
<path d="M14.8639 6.20151C14.9951 6.26714 15.0936 6.20151 15.1264 6.10308C15.192 5.97183 15.2576 5.21714 15.2576 5.21714C15.2576 5.21714 14.7982 5.80776 14.7326 5.93901C14.7326 6.03745 14.7326 6.1687 14.8639 6.20151ZM16.4389 9.94214C16.3732 10.0734 16.4389 10.1718 16.5373 10.2046C16.6686 10.2703 17.4232 10.3359 17.4232 10.3359C17.4232 10.3359 16.8326 9.87651 16.7014 9.81089C16.6029 9.81089 16.4717 9.81089 16.4389 9.94214ZM12.6982 11.5171C12.567 11.4515 12.4686 11.5171 12.4357 11.6156C12.3701 11.7468 12.3045 12.5015 12.3045 12.5015C12.3045 12.5015 12.7639 11.9109 12.8295 11.7796C12.8295 11.6812 12.8295 11.55 12.6982 11.5171ZM11.1232 7.77651C11.1889 7.64526 11.1232 7.54683 11.0248 7.51401C10.8936 7.44839 10.1389 7.38276 10.1389 7.38276C10.1389 7.38276 10.7295 7.84214 10.8607 7.90776C10.9592 7.90776 11.0904 7.90776 11.1232 7.77651ZM15.8154 6.82495C15.9139 6.92339 16.0451 6.89058 16.1107 6.82495C16.2092 6.72651 16.5701 6.07026 16.5701 6.07026C16.5701 6.07026 15.9139 6.4312 15.8154 6.52964C15.717 6.62808 15.717 6.72651 15.8154 6.82495ZM15.8154 10.8937C15.717 10.9921 15.7498 11.0906 15.8154 11.189C15.9139 11.2875 16.5701 11.6484 16.5701 11.6484C16.5701 11.6484 16.2092 10.9921 16.1107 10.8937C16.0123 10.7953 15.9139 10.7953 15.8154 10.8937ZM11.7467 10.8937C11.6482 10.7953 11.517 10.8281 11.4514 10.8937C11.3529 10.9921 10.992 11.6484 10.992 11.6484C10.992 11.6484 11.6482 11.2875 11.7467 11.189C11.8451 11.0906 11.8451 10.9921 11.7467 10.8937ZM11.7467 6.82495C11.8451 6.72651 11.8123 6.59526 11.7467 6.52964C11.6482 6.4312 10.992 6.07026 10.992 6.07026C10.992 6.07026 11.3529 6.72651 11.4514 6.82495C11.5498 6.92339 11.6482 6.92339 11.7467 6.82495ZM16.4389 7.77651C16.5045 7.90776 16.6029 7.94058 16.7014 7.87495C16.8326 7.80933 17.4232 7.34995 17.4232 7.34995C17.4232 7.34995 16.6686 7.44839 16.5373 7.4812C16.4389 7.54683 16.3732 7.61245 16.4389 7.77651ZM14.8639 11.5171C14.7326 11.5828 14.6998 11.6812 14.7654 11.7796C14.8311 11.9109 15.2904 12.5015 15.2904 12.5015C15.2904 12.5015 15.192 11.7468 15.1592 11.6156C15.0936 11.5171 15.0279 11.4515 14.8639 11.5171ZM11.1232 9.94214C11.0576 9.81089 10.9592 9.77808 10.8607 9.8437C10.7295 9.90933 10.1389 10.3687 10.1389 10.3687C10.1389 10.3687 10.8936 10.2703 11.0248 10.2375C11.1232 10.1718 11.1889 10.1062 11.1232 9.94214ZM12.6982 6.20151C12.8295 6.13589 12.8623 6.03745 12.7967 5.93901C12.7311 5.80776 12.2717 5.21714 12.2717 5.21714C12.2717 5.21714 12.3701 5.93901 12.4029 6.10308C12.4686 6.20151 12.5342 6.26714 12.6982 6.20151ZM14.3389 6.03745C14.4701 6.07026 14.5686 5.97183 14.5686 5.87339C14.6014 5.74214 14.5357 4.98745 14.5357 4.98745C14.5357 4.98745 14.2076 5.6437 14.1748 5.80776C14.142 5.9062 14.2076 6.00464 14.3389 6.03745ZM16.6029 9.41714C16.5701 9.54839 16.6686 9.64683 16.767 9.64683C16.8982 9.67964 17.6529 9.61401 17.6529 9.61401C17.6529 9.61401 16.9967 9.28589 16.8326 9.25308C16.7342 9.22026 16.6357 9.28589 16.6029 9.41714ZM13.2232 11.6812C13.092 11.6484 12.9936 11.7468 12.9936 11.8453C12.9607 11.9765 13.0264 12.7312 13.0264 12.7312C13.0264 12.7312 13.3545 12.075 13.3873 11.9109C13.4201 11.8125 13.3545 11.714 13.2232 11.6812ZM10.9592 8.30151C10.992 8.13745 10.8936 8.07183 10.7951 8.07183C10.6639 8.03901 9.90918 8.10464 9.90918 8.10464C9.90918 8.10464 10.5654 8.43276 10.7295 8.46558C10.8279 8.49839 10.9264 8.43276 10.9592 8.30151ZM15.3889 6.46401C15.5201 6.52964 15.6186 6.49683 15.6842 6.39839C15.7826 6.26714 15.9795 5.57808 15.9795 5.57808C15.9795 5.57808 15.4217 6.07026 15.3232 6.1687C15.2576 6.26714 15.2576 6.39839 15.3889 6.46401ZM16.1764 10.4671C16.1107 10.5984 16.1436 10.6968 16.242 10.7625C16.3732 10.8609 17.0623 11.0578 17.0623 11.0578C17.0623 11.0578 16.5701 10.5 16.4717 10.4015C16.3732 10.3359 16.242 10.3359 16.1764 10.4671ZM12.1732 11.2546C12.042 11.189 11.9436 11.2218 11.8779 11.3203C11.8123 11.4187 11.5826 12.1406 11.5826 12.1406C11.5826 12.1406 12.1404 11.6484 12.2389 11.55C12.3045 11.4515 12.3045 11.3203 12.1732 11.2546ZM11.3857 7.25151C11.4514 7.12026 11.4186 7.02183 11.3201 6.9562C11.2217 6.89058 10.4998 6.66089 10.4998 6.66089C10.4998 6.66089 10.992 7.2187 11.0904 7.31714C11.1889 7.38276 11.3201 7.38276 11.3857 7.25151ZM16.1764 7.25151C16.2748 7.38276 16.3732 7.38276 16.4717 7.31714C16.6029 7.2187 17.0623 6.66089 17.0623 6.66089C17.0623 6.66089 16.3404 6.89058 16.242 6.9562C16.1436 7.05464 16.0779 7.15308 16.1764 7.25151ZM15.3889 11.2546C15.2576 11.3531 15.2576 11.4515 15.3232 11.55C15.4217 11.6812 15.9795 12.1406 15.9795 12.1406C15.9795 12.1406 15.7498 11.4187 15.6842 11.3203C15.5857 11.2218 15.4873 11.1562 15.3889 11.2546ZM11.3857 10.4671C11.2873 10.3359 11.1889 10.3359 11.0904 10.4015C10.9592 10.5 10.4998 11.0578 10.4998 11.0578C10.4998 11.0578 11.2217 10.8281 11.3201 10.7625C11.4186 10.664 11.4842 10.5656 11.3857 10.4671ZM12.1732 6.46401C12.3045 6.36558 12.3045 6.26714 12.2389 6.1687C12.1404 6.03745 11.5826 5.57808 11.5826 5.57808C11.5826 5.57808 11.8123 6.29995 11.8779 6.39839C11.9764 6.49683 12.0748 6.56245 12.1732 6.46401ZM16.6029 8.30151C16.6357 8.43276 16.7342 8.49839 16.8326 8.46558C16.9639 8.43276 17.6529 8.10464 17.6529 8.10464C17.6529 8.10464 16.8982 8.03901 16.767 8.07183C16.6357 8.07183 16.5701 8.13745 16.6029 8.30151ZM14.3389 11.6812C14.2076 11.714 14.142 11.8125 14.1748 11.9109C14.2076 12.0421 14.5357 12.7312 14.5357 12.7312C14.5357 12.7312 14.6014 11.9765 14.5686 11.8453C14.5686 11.714 14.5029 11.6484 14.3389 11.6812ZM10.9592 9.41714C10.9264 9.28589 10.8279 9.22026 10.7295 9.25308C10.5982 9.28589 9.90918 9.61401 9.90918 9.61401C9.90918 9.61401 10.6639 9.67964 10.7951 9.64683C10.9264 9.64683 10.992 9.5812 10.9592 9.41714ZM13.2232 6.03745C13.3545 6.00464 13.4201 5.9062 13.3873 5.80776C13.3545 5.67651 13.0264 4.98745 13.0264 4.98745C13.0264 4.98745 12.9607 5.74214 12.9936 5.87339C12.9936 6.00464 13.0592 6.07026 13.2232 6.03745ZM5.41387 16.9312H5.05293V18.1453H4.33105C4.69199 18.4406 5.05293 18.6703 5.44668 18.9328V16.9312H5.41387ZM5.05293 2.85464V4.0687H5.41387V2.06714C5.02012 2.29683 4.65918 2.55933 4.29824 2.85464H5.05293ZM4.23262 2.88745C4.13418 2.95308 4.03574 3.05151 3.9373 3.14995L4.92168 5.28276H4.10137V4.0687H3.74043V5.28276H2.92012L3.87168 3.21558C3.60918 3.44526 3.34668 3.70776 3.11699 4.00308L2.3623 5.61089L3.64199 8.36714H2.82168V7.15308H2.46074V10.3687H2.82168V9.02339H3.6748L3.18262 10.5L3.6748 11.9437H2.82168V10.5984H2.46074V13.814H2.82168V12.6H3.64199L2.3623 15.3562L3.11699 16.964C3.34668 17.2265 3.60918 17.489 3.87168 17.7515L2.92012 15.6843H3.74043V16.8984H4.10137V15.6843H4.92168L3.9373 17.8171C4.03574 17.9156 4.13418 17.9812 4.23262 18.0796L5.47949 15.3562L4.1998 12.6H5.02012V13.814H5.38105V10.5984H5.02012V11.9437H4.16699L4.65918 10.5L4.16699 9.0562H5.02012V10.4015H5.38105V7.18589H5.02012V8.39995H4.1998L5.47949 5.6437L4.23262 2.88745ZM4.95449 15.0609H4.13418V13.8468H3.77324V15.0609H2.92012L3.9373 12.8953L4.95449 15.0609ZM3.9373 11.55L3.6748 10.7953H4.1998L3.9373 11.55ZM4.1998 10.2046H3.6748L3.9373 9.44995L4.1998 10.2046ZM3.9373 8.13745L2.92012 5.97183H3.74043V7.18589H4.10137V5.97183H4.92168L3.9373 8.13745Z" fill="#FFE62E"/>
</g>
<defs>
<clipPath id="clip0_46_1513">
<rect width="21" height="21" fill="white"/>
</clipPath>
</defs>
</svg>
