<svg width="189" height="38" viewBox="0 0 189 38" fill="none" xmlns="http://www.w3.org/2000/svg">
<path d="M58.87 29C58.49 29 58.16 28.87 57.88 28.61C57.6 28.33 57.46 27.99 57.46 27.59V5.57H60.28V27.59C60.28 27.99 60.15 28.33 59.89 28.61C59.63 28.87 59.29 29 58.87 29ZM50.74 8.15C50.36 8.15 50.05 8.03 49.81 7.79C49.57 7.55 49.45 7.24 49.45 6.86C49.45 6.48 49.57 6.17 49.81 5.93C50.05 5.69 50.36 5.57 50.74 5.57H67C67.4 5.57 67.72 5.69 67.96 5.93C68.2 6.17 68.32 6.48 68.32 6.86C68.32 7.24 68.2 7.55 67.96 7.79C67.72 8.03 67.4 8.15 67 8.15H50.74ZM73.9537 29.12C72.4537 29.12 71.1137 28.76 69.9337 28.04C68.7537 27.32 67.8237 26.33 67.1437 25.07C66.4637 23.81 66.1237 22.39 66.1237 20.81C66.1237 19.21 66.4837 17.79 67.2037 16.55C67.9437 15.29 68.9337 14.3 70.1737 13.58C71.4337 12.84 72.8437 12.47 74.4037 12.47C75.9837 12.47 77.3937 12.84 78.6337 13.58C79.8737 14.3 80.8537 15.29 81.5737 16.55C82.3137 17.81 82.6937 19.23 82.7137 20.81L81.6337 21.08C81.6337 22.6 81.2937 23.97 80.6137 25.19C79.9337 26.41 79.0137 27.37 77.8537 28.07C76.7137 28.77 75.4137 29.12 73.9537 29.12ZM74.4037 26.66C75.4837 26.66 76.4437 26.41 77.2837 25.91C78.1237 25.39 78.7837 24.69 79.2637 23.81C79.7637 22.91 80.0137 21.91 80.0137 20.81C80.0137 19.69 79.7637 18.69 79.2637 17.81C78.7837 16.91 78.1237 16.21 77.2837 15.71C76.4437 15.19 75.4837 14.93 74.4037 14.93C73.3637 14.93 72.4137 15.19 71.5537 15.71C70.6937 16.21 70.0137 16.91 69.5137 17.81C69.0337 18.69 68.7937 19.69 68.7937 20.81C68.7937 21.91 69.0337 22.91 69.5137 23.81C70.0137 24.69 70.6937 25.39 71.5537 25.91C72.4137 26.41 73.3637 26.66 74.4037 26.66ZM81.3037 29.03C80.9037 29.03 80.5737 28.9 80.3137 28.64C80.0537 28.38 79.9237 28.05 79.9237 27.65V22.85L80.4937 19.97L82.7137 20.81V27.65C82.7137 28.05 82.5737 28.38 82.2937 28.64C82.0337 28.9 81.7037 29.03 81.3037 29.03ZM89.0071 29C88.5871 29 88.2471 28.87 87.9871 28.61C87.7271 28.35 87.5971 28.02 87.5971 27.62V13.97C87.5971 13.55 87.7271 13.22 87.9871 12.98C88.2471 12.72 88.5871 12.59 89.0071 12.59C89.4071 12.59 89.7371 12.72 89.9971 12.98C90.2571 13.22 90.3871 13.55 90.3871 13.97V27.62C90.3871 28.02 90.2571 28.35 89.9971 28.61C89.7371 28.87 89.4071 29 89.0071 29ZM88.9771 9.74C88.4771 9.74 88.0471 9.56 87.6871 9.2C87.3271 8.84 87.1471 8.4 87.1471 7.88C87.1471 7.36 87.3271 6.93 87.6871 6.59C88.0671 6.23 88.5071 6.05 89.0071 6.05C89.4871 6.05 89.9071 6.23 90.2671 6.59C90.6471 6.93 90.8371 7.36 90.8371 7.88C90.8371 8.4 90.6571 8.84 90.2971 9.2C89.9371 9.56 89.4971 9.74 88.9771 9.74ZM99.8934 29C99.0534 29 98.3034 28.77 97.6434 28.31C96.9834 27.85 96.4634 27.22 96.0834 26.42C95.7234 25.6 95.5434 24.66 95.5434 23.6V6.92C95.5434 6.52 95.6634 6.2 95.9034 5.96C96.1634 5.7 96.4934 5.57 96.8934 5.57C97.3134 5.57 97.6434 5.7 97.8834 5.96C98.1434 6.2 98.2734 6.52 98.2734 6.92V23.6C98.2734 24.38 98.4234 25.02 98.7234 25.52C99.0434 26.02 99.4334 26.27 99.8934 26.27H100.643C101.023 26.27 101.323 26.4 101.543 26.66C101.763 26.9 101.873 27.23 101.873 27.65C101.873 28.05 101.703 28.38 101.363 28.64C101.043 28.88 100.623 29 100.103 29H99.8934Z" fill="#333333"/>
<path d="M120.891 29C120.511 29 120.181 28.87 119.901 28.61C119.621 28.33 119.481 27.99 119.481 27.59V5.57H122.301V27.59C122.301 27.99 122.171 28.33 121.911 28.61C121.651 28.87 121.311 29 120.891 29ZM112.761 8.15C112.381 8.15 112.071 8.03 111.831 7.79C111.591 7.55 111.471 7.24 111.471 6.86C111.471 6.48 111.591 6.17 111.831 5.93C112.071 5.69 112.381 5.57 112.761 5.57H129.021C129.421 5.57 129.741 5.69 129.981 5.93C130.221 6.17 130.341 6.48 130.341 6.86C130.341 7.24 130.221 7.55 129.981 7.79C129.741 8.03 129.421 8.15 129.021 8.15H112.761ZM135.975 29.12C134.475 29.12 133.135 28.76 131.955 28.04C130.775 27.32 129.845 26.33 129.165 25.07C128.485 23.81 128.145 22.39 128.145 20.81C128.145 19.21 128.505 17.79 129.225 16.55C129.965 15.29 130.955 14.3 132.195 13.58C133.455 12.84 134.865 12.47 136.425 12.47C138.005 12.47 139.415 12.84 140.655 13.58C141.895 14.3 142.875 15.29 143.595 16.55C144.335 17.81 144.715 19.23 144.735 20.81L143.655 21.08C143.655 22.6 143.315 23.97 142.635 25.19C141.955 26.41 141.035 27.37 139.875 28.07C138.735 28.77 137.435 29.12 135.975 29.12ZM136.425 26.66C137.505 26.66 138.465 26.41 139.305 25.91C140.145 25.39 140.805 24.69 141.285 23.81C141.785 22.91 142.035 21.91 142.035 20.81C142.035 19.69 141.785 18.69 141.285 17.81C140.805 16.91 140.145 16.21 139.305 15.71C138.465 15.19 137.505 14.93 136.425 14.93C135.385 14.93 134.435 15.19 133.575 15.71C132.715 16.21 132.035 16.91 131.535 17.81C131.055 18.69 130.815 19.69 130.815 20.81C130.815 21.91 131.055 22.91 131.535 23.81C132.035 24.69 132.715 25.39 133.575 25.91C134.435 26.41 135.385 26.66 136.425 26.66ZM143.325 29.03C142.925 29.03 142.595 28.9 142.335 28.64C142.075 28.38 141.945 28.05 141.945 27.65V22.85L142.515 19.97L144.735 20.81V27.65C144.735 28.05 144.595 28.38 144.315 28.64C144.055 28.9 143.725 29.03 143.325 29.03ZM153.009 29C152.169 29 151.419 28.77 150.759 28.31C150.099 27.85 149.579 27.22 149.199 26.42C148.839 25.6 148.659 24.66 148.659 23.6V6.92C148.659 6.52 148.779 6.2 149.019 5.96C149.279 5.7 149.609 5.57 150.009 5.57C150.429 5.57 150.759 5.7 150.999 5.96C151.259 6.2 151.389 6.52 151.389 6.92V23.6C151.389 24.38 151.539 25.02 151.839 25.52C152.159 26.02 152.549 26.27 153.009 26.27H153.759C154.139 26.27 154.439 26.4 154.659 26.66C154.879 26.9 154.989 27.23 154.989 27.65C154.989 28.05 154.819 28.38 154.479 28.64C154.159 28.88 153.739 29 153.219 29H153.009ZM160.538 23.21L158.858 21.35L168.488 12.74C168.748 12.48 169.038 12.36 169.358 12.38C169.698 12.38 169.988 12.52 170.228 12.8C170.488 13.08 170.608 13.39 170.588 13.73C170.588 14.05 170.448 14.33 170.168 14.57L160.538 23.21ZM159.398 29C158.998 29 158.668 28.88 158.408 28.64C158.168 28.38 158.048 28.05 158.048 27.65V6.92C158.048 6.52 158.168 6.2 158.408 5.96C158.668 5.7 158.998 5.57 159.398 5.57C159.798 5.57 160.118 5.7 160.358 5.96C160.618 6.2 160.748 6.52 160.748 6.92V27.65C160.748 28.05 160.618 28.38 160.358 28.64C160.118 28.88 159.798 29 159.398 29ZM170.258 28.85C169.958 29.09 169.628 29.19 169.268 29.15C168.928 29.13 168.638 28.97 168.398 28.67L162.098 20.9L163.988 19.1L170.438 27.05C170.678 27.33 170.778 27.64 170.738 27.98C170.718 28.3 170.558 28.59 170.258 28.85ZM181.037 29.12C179.717 29.12 178.467 28.92 177.287 28.52C176.107 28.1 175.177 27.53 174.497 26.81C174.237 26.51 174.127 26.18 174.167 25.82C174.207 25.46 174.387 25.15 174.707 24.89C175.047 24.63 175.397 24.52 175.757 24.56C176.117 24.6 176.417 24.76 176.657 25.04C177.057 25.48 177.637 25.86 178.397 26.18C179.177 26.5 180.027 26.66 180.947 26.66C182.247 26.66 183.207 26.45 183.827 26.03C184.467 25.59 184.797 25.05 184.817 24.41C184.817 23.75 184.507 23.2 183.887 22.76C183.267 22.3 182.177 21.94 180.617 21.68C178.597 21.3 177.127 20.71 176.207 19.91C175.287 19.11 174.827 18.14 174.827 17C174.827 15.98 175.107 15.14 175.667 14.48C176.247 13.8 176.997 13.3 177.917 12.98C178.857 12.64 179.847 12.47 180.887 12.47C182.207 12.47 183.367 12.69 184.367 13.13C185.367 13.55 186.167 14.14 186.767 14.9C187.027 15.2 187.137 15.51 187.097 15.83C187.077 16.15 186.917 16.42 186.617 16.64C186.317 16.82 185.967 16.88 185.567 16.82C185.187 16.76 184.867 16.59 184.607 16.31C184.107 15.79 183.547 15.43 182.927 15.23C182.327 15.01 181.627 14.9 180.827 14.9C179.867 14.9 179.067 15.08 178.427 15.44C177.807 15.8 177.497 16.29 177.497 16.91C177.497 17.31 177.597 17.66 177.797 17.96C178.017 18.26 178.417 18.54 178.997 18.8C179.577 19.04 180.407 19.26 181.487 19.46C182.987 19.74 184.167 20.11 185.027 20.57C185.907 21.03 186.537 21.57 186.917 22.19C187.297 22.81 187.487 23.51 187.487 24.29C187.487 25.21 187.227 26.04 186.707 26.78C186.207 27.5 185.477 28.07 184.517 28.49C183.557 28.91 182.397 29.12 181.037 29.12Z" fill="url(#paint0_linear_248_297)"/>
<g clip-path="url(#clip0_248_297)">
<path d="M32.2249 13.2386C32.2249 13.2386 29.0751 11.9857 26.977 12.1495C25.1759 12.2902 23.2924 13.2686 22.6224 13.7832C21.2921 14.805 20.7242 15.8525 20.0543 17.1594C19.1989 18.8281 18.7273 19.3312 17.0395 20.2089C15.8076 20.8495 15.4764 20.7176 13.8015 21.2981C12.9544 21.5916 13.0643 21.5793 12.015 21.9515C10.7867 22.3872 11.6293 24.7366 12.4615 26.0901C13.1982 27.2882 14.1155 28.0231 15.6996 28.704C17.1894 29.3443 17.9958 29.5694 19.6076 29.7931C21.3538 30.0354 23.3082 29.7847 23.9623 30.3377C24.4928 30.7861 25.5688 31.433 26.3054 31.9564C26.5907 32.1592 26.717 32.5089 26.7032 32.8587C26.6689 33.7246 26.8139 35.2075 28.3438 34.3991C29.4305 33.825 30.5057 33.0935 31.3482 32.3796C32.5833 31.3329 33.4382 30.36 33.4382 30.36" stroke="url(#paint1_linear_248_297)" stroke-width="2" stroke-linecap="round"/>
<path d="M20.1152 1.20039C19.6637 1.18251 19.2654 1.18952 18.809 1.20039L20.1152 1.20039Z" fill="url(#paint2_linear_248_297)"/>
<path d="M30.4561 15.7612C29.6692 16.8423 29.0845 18.7236 28.9946 20.6264C28.9047 22.5292 28.9946 23.2211 29.894 24.1942C30.5935 24.951 31.3207 25.397 32.4798 25.5997C33.7164 25.8159 36.0774 25.7078 36.9768 23.8698C37.8945 21.9943 38.101 18.5722 37.6513 16.1936C37.1607 13.5988 36.4386 11.9228 35.0221 9.60916C34.1816 8.23636 33.2585 7.16006 32.1463 6.09503C31.3839 5.36509 30.3008 4.64834 29.4011 4.08696C27.9932 3.20842 26.8845 2.66247 25.4795 2.20439C24.3259 1.82827 23.6687 1.64949 22.473 1.45136C21.6086 1.30815 20.8276 1.2286 20.1152 1.20039M13.584 2.08396C13.8035 2.0137 14.6358 1.66926 15.8046 1.45284C16.7236 1.28267 17.8968 1.22213 18.809 1.20039M18.809 1.20039C19.2654 1.18952 19.6637 1.18251 20.1152 1.20039M18.809 1.20039L20.1152 1.20039" stroke="url(#paint3_linear_248_297)" stroke-width="2" stroke-linecap="round"/>
<mask id="path-5-inside-1_248_297" fill="white">
<ellipse cx="8.53742" cy="13.4533" rx="0.898744" ry="1.63102"/>
</mask>
<ellipse cx="8.53742" cy="13.4533" rx="0.898744" ry="1.63102" fill="black"/>
<path d="M8.43616 13.4533C8.43616 13.7677 8.36378 14.003 8.29709 14.124C8.26445 14.1832 8.25037 14.1844 8.27836 14.1629C8.31264 14.1366 8.40321 14.0843 8.53742 14.0843V16.0843C9.31786 16.0843 9.80979 15.5229 10.0488 15.0892C10.3073 14.6199 10.4362 14.0396 10.4362 13.4533H8.43616ZM8.53742 14.0843C8.67163 14.0843 8.76219 14.1366 8.79648 14.1629C8.82446 14.1844 8.81039 14.1832 8.77774 14.124C8.71105 14.003 8.63867 13.7677 8.63867 13.4533H6.63867C6.63867 14.0396 6.76748 14.6199 7.02607 15.0892C7.26505 15.5229 7.75697 16.0843 8.53742 16.0843V14.0843ZM8.63867 13.4533C8.63867 13.1388 8.71105 12.9036 8.77774 12.7826C8.81039 12.7234 8.82446 12.7222 8.79648 12.7437C8.76219 12.77 8.67163 12.8223 8.53742 12.8223V10.8223C7.75697 10.8223 7.26505 11.3837 7.02607 11.8174C6.76748 12.2867 6.63867 12.867 6.63867 13.4533H8.63867ZM8.53742 12.8223C8.40321 12.8223 8.31264 12.77 8.27836 12.7437C8.25037 12.7222 8.26445 12.7234 8.29709 12.7826C8.36378 12.9036 8.43616 13.1388 8.43616 13.4533H10.4362C10.4362 12.867 10.3073 12.2867 10.0488 11.8174C9.80979 11.3837 9.31786 10.8223 8.53742 10.8223V12.8223Z" fill="black" mask="url(#path-5-inside-1_248_297)"/>
<mask id="path-7-inside-2_248_297" fill="white">
<ellipse cx="15.9534" cy="15.6291" rx="0.898744" ry="1.63102"/>
</mask>
<ellipse cx="15.9534" cy="15.6291" rx="0.898744" ry="1.63102" fill="black"/>
<path d="M15.8522 15.6291C15.8522 15.9435 15.7798 16.1787 15.7131 16.2998C15.6805 16.359 15.6664 16.3601 15.6944 16.3387C15.7287 16.3123 15.8192 16.2601 15.9534 16.2601V18.2601C16.7339 18.2601 17.2258 17.6987 17.4648 17.265C17.7234 16.7957 17.8522 16.2154 17.8522 15.6291H15.8522ZM15.9534 16.2601C16.0876 16.2601 16.1782 16.3123 16.2125 16.3387C16.2405 16.3601 16.2264 16.359 16.1938 16.2998C16.1271 16.1787 16.0547 15.9435 16.0547 15.6291H14.0547C14.0547 16.2154 14.1835 16.7957 14.4421 17.265C14.6811 17.6987 15.173 18.2601 15.9534 18.2601V16.2601ZM16.0547 15.6291C16.0547 15.3146 16.1271 15.0794 16.1938 14.9584C16.2264 14.8991 16.2405 14.898 16.2125 14.9195C16.1782 14.9458 16.0876 14.998 15.9534 14.998V12.998C15.173 12.998 14.6811 13.5595 14.4421 13.9932C14.1835 14.4624 14.0547 15.0427 14.0547 15.6291H16.0547ZM15.9534 14.998C15.8192 14.998 15.7287 14.9458 15.6944 14.9195C15.6664 14.898 15.6805 14.8991 15.7131 14.9584C15.7798 15.0794 15.8522 15.3146 15.8522 15.6291H17.8522C17.8522 15.0427 17.7234 14.4624 17.4648 13.9932C17.2258 13.5595 16.7339 12.998 15.9534 12.998V14.998Z" fill="black" mask="url(#path-7-inside-2_248_297)"/>
<mask id="path-9-inside-3_248_297" fill="white">
<ellipse cx="0.8927" cy="1.75216" rx="0.8927" ry="1.75216" transform="matrix(0.893642 0.44878 -0.472467 0.881349 23.6211 17.2734)"/>
</mask>
<ellipse cx="0.8927" cy="1.75216" rx="0.8927" ry="1.75216" transform="matrix(0.893642 0.44878 -0.472467 0.881349 23.6211 17.2734)" fill="url(#paint4_linear_248_297)"/>
<path d="M22.6015 18.7214C22.4903 18.9289 22.3891 19.0057 22.4062 18.9936C22.4157 18.987 22.521 18.9123 22.7242 18.8676C22.9441 18.8192 23.3158 18.8029 23.7081 18.9999L21.8182 22.5253C23.0626 23.1502 24.2291 22.5482 24.7333 22.1935C25.3387 21.7676 25.8301 21.1619 26.176 20.5165L22.6015 18.7214ZM23.7081 18.9999C24.1004 19.1969 24.3006 19.5005 24.3864 19.7024C24.4656 19.8889 24.4632 20.0152 24.463 20.0266C24.4627 20.047 24.4693 19.9227 24.5805 19.7153L21.006 17.9201C20.66 18.5655 20.4313 19.3031 20.4201 20.0275C20.4107 20.6306 20.5739 21.9004 21.8182 22.5253L23.7081 18.9999ZM24.5805 19.7153C24.6918 19.5078 24.7929 19.431 24.7758 19.443C24.7664 19.4497 24.661 19.5243 24.4579 19.569C24.238 19.6174 23.8662 19.6338 23.4739 19.4368L25.3638 15.9114C24.1194 15.2865 22.9529 15.8885 22.4487 16.2431C21.8433 16.6691 21.352 17.2747 21.006 17.9201L24.5805 19.7153ZM23.4739 19.4368C23.0816 19.2398 22.8814 18.9362 22.7956 18.7343C22.7164 18.5478 22.7188 18.4214 22.719 18.4101C22.7193 18.3897 22.7127 18.5139 22.6015 18.7214L26.176 20.5165C26.522 19.8711 26.7507 19.1336 26.7619 18.4092C26.7713 17.806 26.6081 16.5363 25.3638 15.9114L23.4739 19.4368Z" fill="url(#paint5_linear_248_297)" mask="url(#path-9-inside-3_248_297)"/>
<path d="M24.0334 36.1663C24.0334 36.1663 22.5436 36.4302 21.8128 36.545C19.0865 36.9731 15.7862 36.6522 12.7997 35.5352C12.1509 35.2925 11.5897 35.0903 10.9709 34.7778C8.90368 33.734 7.64755 32.7773 6.07384 31.1097C4.65197 29.603 3.81969 28.65 2.87216 26.8257C1.83527 24.8294 1.3204 23.1125 1.04335 20.8932C0.758839 18.6143 1.0984 16.1889 1.708 13.9708C2.28665 11.8653 2.82502 11.1502 3.51163 9.89196C3.86651 9.24161 5.10157 7.50442 6.88915 5.86554C7.75234 5.07415 10.4511 2.78585 10.7863 3.97816C10.8745 4.29187 10.9162 4.98477 10.9983 5.63765C11.0272 5.86809 11.1534 6.27751 11.2766 6.6407C11.4236 7.07369 11.8576 7.33478 12.3143 7.31325C12.9708 7.2823 13.9218 7.2827 14.668 7.46731C15.2457 7.61024 15.8367 7.92574 16.3346 8.24987C16.9507 8.65101 17.8574 8.40806 18.1479 7.73262C18.6819 6.49106 19.5279 4.96996 20.3659 5.29947C20.5606 5.37603 21.3534 7.29292 21.5948 8.00927C22.0331 9.30997 22.088 10.5211 22.088 10.5211" stroke="black" stroke-width="2" stroke-linecap="round"/>
<path d="M12.0291 17.3228L12.0291 17.3228L12.0435 17.3284C12.0435 17.3284 12.0435 17.3284 12.0435 17.3284C12.2354 17.403 12.2772 17.6534 12.1205 17.7899C11.9768 17.9152 11.7384 17.8599 11.6739 17.6677C11.6078 17.4709 11.7772 17.2812 11.9679 17.307C11.9889 17.3099 12.0094 17.3152 12.0291 17.3228Z" fill="black" stroke="black"/>
</g>
<defs>
<linearGradient id="paint0_linear_248_297" x1="189" y1="3" x2="175.386" y2="63.2251" gradientUnits="userSpaceOnUse">
<stop offset="0.277505" stop-color="#83B6FF"/>
<stop offset="0.859185" stop-color="#F47AFF"/>
</linearGradient>
<linearGradient id="paint1_linear_248_297" x1="33.4382" y1="12.1348" x2="11.1866" y2="34.1781" gradientUnits="userSpaceOnUse">
<stop offset="0.277505" stop-color="#83B6FF"/>
<stop offset="0.859185" stop-color="#F47AFF"/>
</linearGradient>
<linearGradient id="paint2_linear_248_297" x1="37.8803" y1="1.18945" x2="13.6564" y2="25.4885" gradientUnits="userSpaceOnUse">
<stop offset="0.277505" stop-color="#83B6FF"/>
<stop offset="0.859185" stop-color="#F47AFF"/>
</linearGradient>
<linearGradient id="paint3_linear_248_297" x1="37.8803" y1="1.18945" x2="13.6564" y2="25.4885" gradientUnits="userSpaceOnUse">
<stop offset="0.277505" stop-color="#83B6FF"/>
<stop offset="0.859185" stop-color="#F47AFF"/>
</linearGradient>
<linearGradient id="paint4_linear_248_297" x1="1.7854" y1="0" x2="-1.03684" y2="1.4539" gradientUnits="userSpaceOnUse">
<stop offset="0.277505" stop-color="#83B6FF"/>
<stop offset="0.859185" stop-color="#F47AFF"/>
</linearGradient>
<linearGradient id="paint5_linear_248_297" x1="25.2166" y1="18.0747" x2="22.0082" y2="18.0398" gradientUnits="userSpaceOnUse">
<stop offset="0.277505" stop-color="#83B6FF"/>
<stop offset="0.859185" stop-color="#F47AFF"/>
</linearGradient>
<clipPath id="clip0_248_297">
<rect width="39" height="38" fill="white"/>
</clipPath>
</defs>
</svg>
