<svg width="139" height="25" viewBox="0 0 139 25" fill="none" xmlns="http://www.w3.org/2000/svg">
<path d="M9.87 24C9.49 24 9.16 23.87 8.88 23.61C8.6 23.33 8.46 22.99 8.46 22.59V0.569999H11.28V22.59C11.28 22.99 11.15 23.33 10.89 23.61C10.63 23.87 10.29 24 9.87 24ZM1.74 3.15C1.36 3.15 1.05 3.03 0.81 2.79C0.57 2.55 0.45 2.24 0.45 1.86C0.45 1.48 0.57 1.17 0.81 0.929998C1.05 0.689999 1.36 0.569999 1.74 0.569999H18C18.4 0.569999 18.72 0.689999 18.96 0.929998C19.2 1.17 19.32 1.48 19.32 1.86C19.32 2.24 19.2 2.55 18.96 2.79C18.72 3.03 18.4 3.15 18 3.15H1.74ZM24.9537 24.12C23.4537 24.12 22.1137 23.76 20.9337 23.04C19.7537 22.32 18.8237 21.33 18.1437 20.07C17.4637 18.81 17.1237 17.39 17.1237 15.81C17.1237 14.21 17.4837 12.79 18.2037 11.55C18.9437 10.29 19.9337 9.3 21.1737 8.58C22.4337 7.84 23.8437 7.47 25.4037 7.47C26.9837 7.47 28.3937 7.84 29.6337 8.58C30.8737 9.3 31.8537 10.29 32.5737 11.55C33.3137 12.81 33.6937 14.23 33.7137 15.81L32.6337 16.08C32.6337 17.6 32.2937 18.97 31.6137 20.19C30.9337 21.41 30.0137 22.37 28.8537 23.07C27.7137 23.77 26.4137 24.12 24.9537 24.12ZM25.4037 21.66C26.4837 21.66 27.4437 21.41 28.2837 20.91C29.1237 20.39 29.7837 19.69 30.2637 18.81C30.7637 17.91 31.0137 16.91 31.0137 15.81C31.0137 14.69 30.7637 13.69 30.2637 12.81C29.7837 11.91 29.1237 11.21 28.2837 10.71C27.4437 10.19 26.4837 9.93 25.4037 9.93C24.3637 9.93 23.4137 10.19 22.5537 10.71C21.6937 11.21 21.0137 11.91 20.5137 12.81C20.0337 13.69 19.7937 14.69 19.7937 15.81C19.7937 16.91 20.0337 17.91 20.5137 18.81C21.0137 19.69 21.6937 20.39 22.5537 20.91C23.4137 21.41 24.3637 21.66 25.4037 21.66ZM32.3037 24.03C31.9037 24.03 31.5737 23.9 31.3137 23.64C31.0537 23.38 30.9237 23.05 30.9237 22.65V17.85L31.4937 14.97L33.7137 15.81V22.65C33.7137 23.05 33.5737 23.38 33.2937 23.64C33.0337 23.9 32.7037 24.03 32.3037 24.03ZM40.0071 24C39.5871 24 39.2471 23.87 38.9871 23.61C38.7271 23.35 38.5971 23.02 38.5971 22.62V8.97C38.5971 8.55 38.7271 8.22 38.9871 7.98C39.2471 7.72 39.5871 7.59 40.0071 7.59C40.4071 7.59 40.7371 7.72 40.9971 7.98C41.2571 8.22 41.3871 8.55 41.3871 8.97V22.62C41.3871 23.02 41.2571 23.35 40.9971 23.61C40.7371 23.87 40.4071 24 40.0071 24ZM39.9771 4.74C39.4771 4.74 39.0471 4.56 38.6871 4.2C38.3271 3.84 38.1471 3.4 38.1471 2.88C38.1471 2.36 38.3271 1.93 38.6871 1.59C39.0671 1.23 39.5071 1.05 40.0071 1.05C40.4871 1.05 40.9071 1.23 41.2671 1.59C41.6471 1.93 41.8371 2.36 41.8371 2.88C41.8371 3.4 41.6571 3.84 41.2971 4.2C40.9371 4.56 40.4971 4.74 39.9771 4.74ZM50.8934 24C50.0534 24 49.3034 23.77 48.6434 23.31C47.9834 22.85 47.4634 22.22 47.0834 21.42C46.7234 20.6 46.5434 19.66 46.5434 18.6V1.92C46.5434 1.52 46.6634 1.2 46.9034 0.96C47.1634 0.7 47.4934 0.569999 47.8934 0.569999C48.3134 0.569999 48.6434 0.7 48.8834 0.96C49.1434 1.2 49.2734 1.52 49.2734 1.92V18.6C49.2734 19.38 49.4234 20.02 49.7234 20.52C50.0434 21.02 50.4334 21.27 50.8934 21.27H51.6434C52.0234 21.27 52.3234 21.4 52.5434 21.66C52.7634 21.9 52.8734 22.23 52.8734 22.65C52.8734 23.05 52.7034 23.38 52.3634 23.64C52.0434 23.88 51.6234 24 51.1034 24H50.8934Z" fill="#333333"/>
<path d="M71.8915 24C71.5115 24 71.1815 23.87 70.9015 23.61C70.6215 23.33 70.4815 22.99 70.4815 22.59V0.569999H73.3015V22.59C73.3015 22.99 73.1715 23.33 72.9115 23.61C72.6515 23.87 72.3115 24 71.8915 24ZM63.7615 3.15C63.3815 3.15 63.0715 3.03 62.8315 2.79C62.5915 2.55 62.4715 2.24 62.4715 1.86C62.4715 1.48 62.5915 1.17 62.8315 0.929998C63.0715 0.689999 63.3815 0.569999 63.7615 0.569999H80.0215C80.4215 0.569999 80.7415 0.689999 80.9815 0.929998C81.2215 1.17 81.3415 1.48 81.3415 1.86C81.3415 2.24 81.2215 2.55 80.9815 2.79C80.7415 3.03 80.4215 3.15 80.0215 3.15H63.7615ZM86.9752 24.12C85.4752 24.12 84.1352 23.76 82.9552 23.04C81.7752 22.32 80.8452 21.33 80.1652 20.07C79.4852 18.81 79.1452 17.39 79.1452 15.81C79.1452 14.21 79.5052 12.79 80.2252 11.55C80.9652 10.29 81.9552 9.3 83.1952 8.58C84.4552 7.84 85.8652 7.47 87.4252 7.47C89.0052 7.47 90.4152 7.84 91.6552 8.58C92.8952 9.3 93.8752 10.29 94.5952 11.55C95.3352 12.81 95.7152 14.23 95.7352 15.81L94.6552 16.08C94.6552 17.6 94.3152 18.97 93.6352 20.19C92.9552 21.41 92.0352 22.37 90.8752 23.07C89.7352 23.77 88.4352 24.12 86.9752 24.12ZM87.4252 21.66C88.5052 21.66 89.4652 21.41 90.3052 20.91C91.1452 20.39 91.8052 19.69 92.2852 18.81C92.7852 17.91 93.0352 16.91 93.0352 15.81C93.0352 14.69 92.7852 13.69 92.2852 12.81C91.8052 11.91 91.1452 11.21 90.3052 10.71C89.4652 10.19 88.5052 9.93 87.4252 9.93C86.3852 9.93 85.4352 10.19 84.5752 10.71C83.7152 11.21 83.0352 11.91 82.5352 12.81C82.0552 13.69 81.8152 14.69 81.8152 15.81C81.8152 16.91 82.0552 17.91 82.5352 18.81C83.0352 19.69 83.7152 20.39 84.5752 20.91C85.4352 21.41 86.3852 21.66 87.4252 21.66ZM94.3252 24.03C93.9252 24.03 93.5952 23.9 93.3352 23.64C93.0752 23.38 92.9452 23.05 92.9452 22.65V17.85L93.5152 14.97L95.7352 15.81V22.65C95.7352 23.05 95.5952 23.38 95.3152 23.64C95.0552 23.9 94.7252 24.03 94.3252 24.03ZM104.009 24C103.169 24 102.419 23.77 101.759 23.31C101.099 22.85 100.579 22.22 100.199 21.42C99.8386 20.6 99.6586 19.66 99.6586 18.6V1.92C99.6586 1.52 99.7786 1.2 100.019 0.96C100.279 0.7 100.609 0.569999 101.009 0.569999C101.429 0.569999 101.759 0.7 101.999 0.96C102.259 1.2 102.389 1.52 102.389 1.92V18.6C102.389 19.38 102.539 20.02 102.839 20.52C103.159 21.02 103.549 21.27 104.009 21.27H104.759C105.139 21.27 105.439 21.4 105.659 21.66C105.879 21.9 105.989 22.23 105.989 22.65C105.989 23.05 105.819 23.38 105.479 23.64C105.159 23.88 104.739 24 104.219 24H104.009ZM111.538 18.21L109.858 16.35L119.488 7.74C119.748 7.48 120.038 7.36 120.358 7.38C120.698 7.38 120.988 7.52 121.228 7.8C121.488 8.08 121.608 8.39 121.588 8.73C121.588 9.05 121.448 9.33 121.168 9.57L111.538 18.21ZM110.398 24C109.998 24 109.668 23.88 109.408 23.64C109.168 23.38 109.048 23.05 109.048 22.65V1.92C109.048 1.52 109.168 1.2 109.408 0.96C109.668 0.7 109.998 0.569999 110.398 0.569999C110.798 0.569999 111.118 0.7 111.358 0.96C111.618 1.2 111.748 1.52 111.748 1.92V22.65C111.748 23.05 111.618 23.38 111.358 23.64C111.118 23.88 110.798 24 110.398 24ZM121.258 23.85C120.958 24.09 120.628 24.19 120.268 24.15C119.928 24.13 119.638 23.97 119.398 23.67L113.098 15.9L114.988 14.1L121.438 22.05C121.678 22.33 121.778 22.64 121.738 22.98C121.718 23.3 121.558 23.59 121.258 23.85ZM132.037 24.12C130.717 24.12 129.467 23.92 128.287 23.52C127.107 23.1 126.177 22.53 125.497 21.81C125.237 21.51 125.127 21.18 125.167 20.82C125.207 20.46 125.387 20.15 125.707 19.89C126.047 19.63 126.397 19.52 126.757 19.56C127.117 19.6 127.417 19.76 127.657 20.04C128.057 20.48 128.637 20.86 129.397 21.18C130.177 21.5 131.027 21.66 131.947 21.66C133.247 21.66 134.207 21.45 134.827 21.03C135.467 20.59 135.797 20.05 135.817 19.41C135.817 18.75 135.507 18.2 134.887 17.76C134.267 17.3 133.177 16.94 131.617 16.68C129.597 16.3 128.127 15.71 127.207 14.91C126.287 14.11 125.827 13.14 125.827 12C125.827 10.98 126.107 10.14 126.667 9.48C127.247 8.8 127.997 8.3 128.917 7.98C129.857 7.64 130.847 7.47 131.887 7.47C133.207 7.47 134.367 7.69 135.367 8.13C136.367 8.55 137.167 9.14 137.767 9.9C138.027 10.2 138.137 10.51 138.097 10.83C138.077 11.15 137.917 11.42 137.617 11.64C137.317 11.82 136.967 11.88 136.567 11.82C136.187 11.76 135.867 11.59 135.607 11.31C135.107 10.79 134.547 10.43 133.927 10.23C133.327 10.01 132.627 9.9 131.827 9.9C130.867 9.9 130.067 10.08 129.427 10.44C128.807 10.8 128.497 11.29 128.497 11.91C128.497 12.31 128.597 12.66 128.797 12.96C129.017 13.26 129.417 13.54 129.997 13.8C130.577 14.04 131.407 14.26 132.487 14.46C133.987 14.74 135.167 15.11 136.027 15.57C136.907 16.03 137.537 16.57 137.917 17.19C138.297 17.81 138.487 18.51 138.487 19.29C138.487 20.21 138.227 21.04 137.707 21.78C137.207 22.5 136.477 23.07 135.517 23.49C134.557 23.91 133.397 24.12 132.037 24.12Z" fill="url(#paint0_linear_248_298)"/>
<defs>
<linearGradient id="paint0_linear_248_298" x1="140" y1="-2" x2="126.386" y2="58.2251" gradientUnits="userSpaceOnUse">
<stop offset="0.277505" stop-color="#83B6FF"/>
<stop offset="0.859185" stop-color="#F47AFF"/>
</linearGradient>
</defs>
</svg>
